<?xml version="1.0" encoding="UTF-8"?>
<svg version="1.1" xmlns="http://www.w3.org/2000/svg" width="192" height="192">
    <path d="M0 0 C63.36 0 126.72 0 192 0 C192 63.36 192 126.72 192 192 C128.64 192 65.28 192 0 192 C0 128.64 0 65.28 0 0 Z "
          fill="#219CEE" transform="translate(0,0)"/>
    <path d="M0 0 C6.26973564 -0.36171552 6.26973564 -0.36171552 9.37426758 1.17602539 C11.47091088 3.52833386 11.67916407 5.06531483 12.01171875 8.18359375 C12.18864258 9.69856445 12.18864258 9.69856445 12.36914062 11.24414062 C12.47419922 12.29794922 12.57925781 13.35175781 12.6875 14.4375 C12.91885806 16.51972251 13.1518659 18.60176253 13.38671875 20.68359375 C13.48170654 21.60712646 13.57669434 22.53065918 13.67456055 23.48217773 C13.96562302 25.73403618 14.44733375 27.80297778 15 30 C17.34185895 46.47785099 18.36584284 63.14245376 19.25 79.75 C19.29687958 80.60358093 19.34375916 81.45716187 19.39205933 82.33660889 C19.52320568 84.76058139 19.64618696 87.18480029 19.765625 89.609375 C19.80500687 90.34344574 19.84438873 91.07751648 19.88496399 91.83383179 C19.96364381 93.55451681 19.98768539 95.27756108 20 97 C19 98 19 98 15.625 98.1875 C12 98 12 98 9 96 C8.53207397 93.83679199 8.53207397 93.83679199 8.39990234 91.12304688 C8.34329437 90.10859497 8.2866864 89.09414307 8.22836304 88.0489502 C8.18136261 86.94998413 8.13436218 85.85101807 8.0859375 84.71875 C8.02596588 83.59432495 7.96599426 82.4698999 7.90420532 81.31140137 C7.71427907 77.70814684 7.54382415 74.10429973 7.375 70.5 C7.19563766 66.89596789 7.01225278 63.29219655 6.82437134 59.68859863 C6.70842485 57.44303792 6.59808055 55.1971799 6.4937439 52.9510498 C6.44344025 51.9365979 6.3931366 50.922146 6.34130859 49.87695312 C6.29928314 48.98141724 6.25725769 48.08588135 6.21395874 47.16320801 C6.12534088 44.95317717 6.12534088 44.95317717 5 43 C4.89977539 43.66418945 4.79955078 44.32837891 4.69628906 45.01269531 C-0.05159705 76.05159705 -0.05159705 76.05159705 -4 80 C-9.38347782 80.46812851 -9.38347782 80.46812851 -11.57421875 78.8046875 C-17.74323704 70.99623148 -18.8628081 57.59462748 -21 48 C-21.02511899 52.44335586 -21.04305342 56.88667177 -21.05493164 61.33007812 C-21.05989458 62.83496828 -21.0666671 64.33985379 -21.07543945 65.84472656 C-21.13090756 75.62016382 -20.86081101 85.25449358 -20 95 C-21.4375 95.08333333 -22.875 95.16666667 -24.3125 95.25 C-25.11300781 95.29640625 -25.91351563 95.3428125 -26.73828125 95.390625 C-29 95 -29 95 -30.61907959 93.42236328 C-32.50493963 90.1142522 -32.36720669 87.65145749 -32.35644531 83.8515625 C-32.35848969 83.13873611 -32.36053406 82.42590973 -32.36264038 81.69148254 C-32.36564669 79.33572678 -32.3471615 76.98067267 -32.328125 74.625 C-32.32506412 72.97794772 -32.3231905 71.33089285 -32.32244873 69.68383789 C-32.31784497 66.22711302 -32.30342724 62.770621 -32.28125 59.31396484 C-32.25314534 54.9141705 -32.24205555 50.51456062 -32.2375679 46.11468506 C-32.23236882 41.88893362 -32.21784902 37.66322697 -32.203125 33.4375 C-32.20124428 32.64506897 -32.19936356 31.85263794 -32.19742584 31.03619385 C-32.11805327 5.11805327 -32.11805327 5.11805327 -30 3 C-27.6875 2.625 -27.6875 2.625 -25 3 C-20.50947939 7.30191875 -19.24162219 12.64088658 -17.5625 18.4375 C-17.264646 19.4385376 -16.96679199 20.4395752 -16.65991211 21.47094727 C-13.62990031 31.86989575 -11.22803679 42.40392609 -9 53 C-6.83862311 49.36302862 -6.21807688 45.55640157 -5.52734375 41.4453125 C-5.39936905 40.70731415 -5.27139435 39.9693158 -5.13954163 39.20895386 C-4.87006405 37.64440013 -4.60381693 36.07928703 -4.34057617 34.51367188 C-3.94444864 32.16617836 -3.53455679 29.82140191 -3.12304688 27.4765625 C-1.54526094 18.31543603 -0.44264868 9.29655818 0 0 Z "
          fill="#F8FBFE" transform="translate(58,47)"/>
    <path d="M0 0 C6.32118294 -0.36468363 6.32118294 -0.36468363 9.203125 1.18359375 C11.60107207 3.60760546 11.46383953 4.86899598 11.5 8.25 C11.73647758 13.401833 12.3578118 18.24469545 13.34057617 23.3059082 C17.47509008 44.63199157 18.68898632 66.51826549 19.75 88.1875 C19.81707153 89.54016968 19.81707153 89.54016968 19.88549805 90.92016602 C19.96772836 92.94546807 19.99130996 94.97304793 20 97 C19 98 19 98 15.6875 98.3125 C12 98 12 98 9.80322266 96.46630859 C7.36421266 93.13041922 7.43316541 90.20562176 7.4609375 86.2265625 C7.44914459 85.4663681 7.43735168 84.70617371 7.42520142 83.92294312 C7.38997241 81.49008944 7.38079192 79.05808733 7.375 76.625 C7.35310998 73.45030371 7.31892655 70.27600738 7.2734375 67.1015625 C7.26310486 66.33120667 7.25277222 65.56085083 7.24212646 64.76715088 C7.09610891 57.73574369 6.22131008 50.93012657 5 44 C4.82984375 44.969375 4.6596875 45.93875 4.484375 46.9375 C3.17396012 54.2515291 1.73902388 61.52480987 0 68.75 C-0.1537207 69.41644531 -0.30744141 70.08289063 -0.46582031 70.76953125 C-1.37559358 74.43876174 -2.34583907 77.25759331 -5 80 C-7.4375 80.5 -7.4375 80.5 -10 80 C-14.1576979 76.80864204 -15.26316111 72.94048942 -16.5625 68.0625 C-16.75779297 67.37865234 -16.95308594 66.69480469 -17.15429688 65.99023438 C-19.00298985 59.38431844 -20.48852331 52.68943233 -22 46 C-22.33676015 68.56655864 -22.33676015 68.56655864 -20.33984375 91.01953125 C-20.17162109 92.49486328 -20.17162109 92.49486328 -20 94 C-21.87264676 95.87264676 -24.49759947 95.23607378 -26.9921875 95.328125 C-29.6932954 94.88669881 -30.37689199 94.20437005 -32 92 C-32.36749268 89.02023315 -32.36749268 89.02023315 -32.35644531 85.31982422 C-32.35848969 84.64443604 -32.36053406 83.96904785 -32.36264038 83.27319336 C-32.3656542 81.03341809 -32.3471281 78.79437587 -32.328125 76.5546875 C-32.32506327 74.98544496 -32.3231903 73.4161997 -32.32244873 71.84695435 C-32.31783908 68.54646487 -32.30340733 65.24621845 -32.28125 61.94580078 C-32.25329261 57.76506413 -32.2420709 53.5845211 -32.2375679 49.40369987 C-32.2323382 45.37067194 -32.21783813 41.33768993 -32.203125 37.3046875 C-32.20124428 36.55728176 -32.19936356 35.80987602 -32.19742584 35.03982162 C-32.16267987 24.32848124 -31.72704352 13.68661708 -31 3 C-25.21191406 2.87353516 -25.21191406 2.87353516 -23.3046875 4.01171875 C-21.30470474 7.05959667 -20.2366131 10.36969028 -19.125 13.8125 C-18.8681543 14.59423584 -18.61130859 15.37597168 -18.34667969 16.18139648 C-15.49677263 25.14314182 -13.49209479 34.29396162 -11.53710938 43.48486328 C-10.71622944 47.32882015 -9.85679259 51.16390591 -9 55 C-6.97601913 46.99852897 -5.54089896 39.09196292 -4.53515625 30.90234375 C-3.97468379 26.81539493 -3.23543727 22.79541225 -2.4375 18.75 C-1.21358987 12.51870432 -0.38953289 6.33998362 0 0 Z "
          fill="#F8FCFE" transform="translate(147,47)"/>
    <path d="M0 0 C6.44116039 -0.36459398 6.44116039 -0.36459398 8.91259766 1.24780273 C10.21608728 3.34819453 10.38665457 4.57112192 10.3984375 7.03515625 C10.40456055 7.83542236 10.41068359 8.63568848 10.41699219 9.46020508 C10.40313477 10.3189624 10.38927734 11.17771973 10.375 12.0625 C10.36629883 12.95283936 10.35759766 13.84317871 10.34863281 14.76049805 C10.07884702 27.23809112 9.08995323 50.59189841 0 60 C-3 60.5 -3 60.5 -6 60 C-9.72851347 56.50393749 -10.08186057 51.80722154 -10.9375 47 C-11.27421306 45.20563029 -11.61146909 43.41136239 -11.94921875 41.6171875 C-12.1198584 40.69389648 -12.29049805 39.77060547 -12.46630859 38.81933594 C-12.99600956 36.02108033 -13.56278025 33.23317778 -14.14453125 30.4453125 C-14.32959229 29.55328125 -14.51465332 28.66125 -14.70532227 27.7421875 C-15.06046025 26.03574233 -15.41886562 24.32997289 -15.78100586 22.625 C-16.65828876 18.33979344 -17.19818281 14.40248955 -17 10 C-14.1875 9.75 -14.1875 9.75 -11 10 C-8.31280329 12.81697956 -7.4217699 15.44474531 -6.61328125 19.203125 C-6.39736328 20.1828125 -6.18144531 21.1625 -5.95898438 22.171875 C-5.74564453 23.18765625 -5.53230469 24.2034375 -5.3125 25.25 C-5.08755859 26.28125 -4.86261719 27.3125 -4.63085938 28.375 C-4.07820452 30.91486061 -3.53495126 33.45636231 -3 36 C-1.28440789 31.50334278 -0.70906165 27.65340451 -0.5859375 22.8515625 C-0.56657135 22.19417084 -0.5472052 21.53677917 -0.5272522 20.85946655 C-0.46797539 18.78143865 -0.42128206 16.70335376 -0.375 14.625 C-0.33677222 13.2070085 -0.29771777 11.78903903 -0.2578125 10.37109375 C-0.16231829 6.91426539 -0.07809811 3.45727017 0 0 Z "
          fill="#F6FBFE" transform="translate(98,83)"/>
    <path d="M0 0 C0.33 0.66 0.66 1.32 1 2 C1.66 2 2.32 2 3 2 C3 2.99 3 3.98 3 5 C3.99 5.33 4.98 5.66 6 6 C6 6.66 6 7.32 6 8 C6.99 8 7.98 8 9 8 C9 8.66 9 9.32 9 10 C9.66 10.33 10.32 10.66 11 11 C7.37 11 3.74 11 0 11 C0 7.37 0 3.74 0 0 Z "
          fill="#000000" transform="translate(0,181)"/>
    <path d="M0 0 C0.33 0 0.66 0 1 0 C1 3.63 1 7.26 1 11 C-2.63 11 -6.26 11 -10 11 C-9.34 10.67 -8.68 10.34 -8 10 C-8 9.34 -8 8.68 -8 8 C-7.01 8 -6.02 8 -5 8 C-4.67 7.01 -4.34 6.02 -4 5 C-3.34 5 -2.68 5 -2 5 C-2 4.01 -2 3.02 -2 2 C-1.34 2 -0.68 2 0 2 C0 1.34 0 0.68 0 0 Z "
          fill="#000000" transform="translate(191,181)"/>
    <path d="M0 0 C3.63 0 7.26 0 11 0 C11 3.63 11 7.26 11 11 C10.67 10.34 10.34 9.68 10 9 C9.34 9 8.68 9 8 9 C8 8.01 8 7.02 8 6 C7.01 5.67 6.02 5.34 5 5 C5 4.34 5 3.68 5 3 C2.525 2.01 2.525 2.01 0 1 C0 0.67 0 0.34 0 0 Z "
          fill="#000000" transform="translate(181,0)"/>
    <path d="M0 0 C3.63 0 7.26 0 11 0 C9.515 1.485 9.515 1.485 8 3 C7.34 3 6.68 3 6 3 C5.67 3.99 5.34 4.98 5 6 C4.34 6 3.68 6 3 6 C3 6.99 3 7.98 3 9 C2.34 9 1.68 9 1 9 C0.67 9.66 0.34 10.32 0 11 C0 7.37 0 3.74 0 0 Z "
          fill="#000000" transform="translate(0,0)"/>
    <path d="M0 0 C2.60018816 3.90028225 2.15085514 7.47434569 2 12 C0.5 10.9375 0.5 10.9375 -1 9 C-1.43076923 2.86153846 -1.43076923 2.86153846 0 0 Z "
          fill="#4CAFF1" transform="translate(63,88)"/>
</svg>
